<svg id="Layer_1" data-name="Layer 1" xmlns="http://www.w3.org/2000/svg" viewBox="0 0 174.15 61.54"><defs><style>.cls-1{fill:#000002;}.cls-2{fill:#010103;}.cls-3{fill:#030305;}.cls-4{fill:#020204;}</style></defs><path class="cls-1" d="M149.68,1.67c0,.49.07,1,.07,1.48V39.48c0,1.14.33,1.44,1.39,1.33,1.4-.15,2.84-.05,4.21-.3,5-.92,7.89-5.24,7.22-10.71-.34-2.82-1.32-5.27-3.78-6.93-.71-.47-.35-.86.15-1.06,1.19-.47,2.42-.85,3.63-1.26.5-.18.88.14,1.27.36,5.43,3.07,6.87,11,2.94,16A15.59,15.59,0,0,1,161,41.27c-.53.25-.71.41-.37,1,3.37,5.6,6.76,11.23,11.26,16.09a10.24,10.24,0,0,0,4.24,2.92c1,.32.74.84.21,1.32a2.57,2.57,0,0,1-1.86.58c-5.25-.12-9.7-1.81-12.81-6.31-2.37-3.43-4.53-7-6.72-10.54a5.18,5.18,0,0,0-4.31-2.73c-.58,0-.92,0-.9.76.06,3.39,0,6.79.11,10.17s1,4.38,4.61,4.63c1.31.09,1.58.57,1.47,1.71-.05.58-.25.66-.75.66H137.65c-.47,0-.88,0-.75-.64s-.49-1.42.58-1.61c.7-.12,1.4-.16,2.09-.29,2.3-.44,3.11-1.32,3.36-3.62A12.57,12.57,0,0,0,143,54V11.1a11.4,11.4,0,0,0-.21-1.84,2.46,2.46,0,0,0-2.1-2.15,16.48,16.48,0,0,0-2.32-.37c-.77-.06-1.25-.12-1.23-1.16s.63-1,1.32-1.16a52.74,52.74,0,0,0,11-2.75Z" transform="translate(-2.66 -1.65)"/><path class="cls-1" d="M59.87,1.67V52.72a19,19,0,0,0,.2,3.45,3.07,3.07,0,0,0,2.54,2.68,20.44,20.44,0,0,0,2.45.38c.66,0,.9.25,1,1,.07,1.06-.2,1.38-1.33,1.37-5.73-.1-11.28-.1-16.87-.1-.49,0-1.07.13-.93-.69.1-.62-.43-1.47.87-1.61,4.56-.5,5.2-1.24,5.26-5.86v-40c0-1.07-.06-2.15-.15-3.21-.16-2-.86-2.78-2.83-3.17a14.35,14.35,0,0,0-1.73-.22c-.73,0-1.26,0-1.24-1.13s.57-1.07,1.28-1.17A63.84,63.84,0,0,0,58.87,1.94c.19-.06.43,0,.5-.29Z" transform="translate(-2.66 -1.65)"/><path class="cls-1" d="M103.33,44.38c.13-6.79,3.49-11.91,8.6-16a18.79,18.79,0,0,1,12.3-4.59,10.27,10.27,0,0,1,4.69,1,3.56,3.56,0,0,1,.31,6.15c-.78.53-1.42.15-2.06-.24a14.54,14.54,0,0,0-4.91-2c-6.54-1.13-11.6,2.43-12.54,9a18.43,18.43,0,0,0,2.52,12.51c4.6,7.48,14.67,8.22,20.7,1.6.25-.28.48-.56.73-.85,1.07-1.23,1.27-1.21,2.35,0a.56.56,0,0,1,.09.75c-2.5,4.32-5.64,8-10.44,9.85-7.12,2.7-15.42-.41-19.49-7.12A19.32,19.32,0,0,1,103.33,44.38Z" transform="translate(-2.66 -1.65)"/><path class="cls-2" d="M74.22,4.11c.13-.33.42-.2.63-.19,2.94.09,5.88.12,8.82,0,.64,0,.85.17.91.79A16.57,16.57,0,0,1,85,7c-.18,0-.34,0-.39-.1a4.49,4.49,0,0,0-5.42-2.24,1.11,1.11,0,0,0-.86,1.2V9.48c0,.23-.06.47.24.62a3.13,3.13,0,0,0,4-1.75c0-.15.15-.28.43-.39V13c-.17-.09-.27-.12-.29-.17-1-2.25-1.15-2.31-3.67-2.16-.61,0-.76.25-.75.82v3.72c0,1,.48,1.35,1.46,1.37,3,0,3,.07,6.17-2.63a14.36,14.36,0,0,1-1,3.12c-.06.23-.32.22-.52.22H74.27c-.12-.5.15-.52.4-.54,1.28-.13,1.71-.8,1.67-2.08-.09-2.64-.09-5.29,0-7.93,0-1.31-.25-2.18-1.71-2.3a.71.71,0,0,1-.34-.13C74.24,4.3,74.24,4.19,74.22,4.11Z" transform="translate(-2.66 -1.65)"/><path class="cls-3" d="M115.91,16.38a2.69,2.69,0,0,1-3,1.1,2.26,2.26,0,0,1-1.79-2.36v-4.2c0-.29.18-.73-.3-.82-1.61-.26-.43-.69-.06-1a10.22,10.22,0,0,0,1.62-1.6c.13-.18.27-.46.58-.3s.17.37.13.54c-.31,1.31.37,1.54,1.46,1.38a8.34,8.34,0,0,1,1,0c.41,0,.6.17.59.58s-.27.46-.58.45h-.13c-.77,0-1.83-.38-2.26.12s-.13,1.65-.16,2.5v2c.08,1.64.64,2,2.22,1.65C115.44,16.34,115.67,16.15,115.91,16.38Z" transform="translate(-2.66 -1.65)"/><path class="cls-4" d="M92.63,11.2c-.71-.36-.64-.86-.89-1.18a1.61,1.61,0,0,0-1.63-.66,1.2,1.2,0,0,0-1.1,1,1.33,1.33,0,0,0,.8,1.4c.64.38,1.3.71,2,1.08.89.51,1.66,1.11,1.5,2.31a2.73,2.73,0,0,1-2,2.27A4.64,4.64,0,0,1,88,17.23c-.84-.35-.44-1.38-.59-2.15.61,0,.6.52.81.79A2.76,2.76,0,0,0,89.86,17a1.4,1.4,0,0,0,1.73-.83A1.22,1.22,0,0,0,91,14.5c-.59-.36-1.23-.65-1.85-1-1.06-.56-1.85-1.31-1.62-2.62A2.64,2.64,0,0,1,89.86,8.8a3.76,3.76,0,0,1,2.2.15C93.05,9.32,92.39,10.29,92.63,11.2Z" transform="translate(-2.66 -1.65)"/><path class="cls-2" d="M94.13,9.9A17.68,17.68,0,0,0,97,7.1c.14.09.23.12.26.18.29.57-.4,1.42.28,1.77.49.25,1.21,0,1.83.08.41,0,1-.2,1,.53s-.65.46-1,.47c-2.13,0-2.13,0-2.13,2.07v2.35c0,1.81.64,2.25,2.42,1.79a4,4,0,0,1,.5-.08,2.47,2.47,0,0,1-2.79,1.24,2.14,2.14,0,0,1-1.93-2.09c-.06-1.27,0-2.55,0-3.83C95.46,10.74,95.67,9.8,94.13,9.9Z" transform="translate(-2.66 -1.65)"/><path class="cls-1" d="M46.34,43.77c-.63-5.39-4.14-8.38-9-10.17a46.77,46.77,0,0,0-5.92-1.53c.11-.39.4-.34.62-.41a21,21,0,0,0,5.59-2.61A11.12,11.12,0,0,0,42.84,18.7c-.27-4.7-2.47-8.2-6.92-10.14a21.68,21.68,0,0,0-8.6-1.63c-7.71-.08-15.42,0-23.12-.06-.61,0-1,.12-.83.79s-.57,1.61.78,1.66a16.19,16.19,0,0,1,3.32.46c1.88.49,2.65,1.3,2.85,3.24a35.26,35.26,0,0,1,.19,3.84V51.44a30.8,30.8,0,0,1-.2,3.72C10,57.36,9.16,58.29,7,58.68c-1.43.25-2.88.36-4.31.53V61.5c8.53,0,17.07.48,25.58-.33A23.69,23.69,0,0,0,40.47,56.8C44.84,53.5,47,49.22,46.34,43.77ZM17.81,12.55C18,10.92,18.42,10.33,20,10a14.94,14.94,0,0,1,8.8.47C32.91,12,34.67,15.31,35,19.5a13.68,13.68,0,0,1-.33,4.18c-1,4.14-3.93,6.13-7.86,7a42.34,42.34,0,0,1-8.42.49c-.81,0-.71-.48-.71-1V21.4C17.76,18.83,17.5,15.68,17.81,12.55Zm20,35.84c-.74,5.8-4.69,9.41-10.56,10.1a16.92,16.92,0,0,1-5.68-.11c-2.4-.54-3.54-2.08-3.79-4.85-.3-3.38-.06-6.77-.15-9.57V34.82c0-.42-.17-.93.6-.94,3.89,0,7.8-.13,11.57,1.08,6.63,2.1,8.84,7.13,8.05,13.43Z" transform="translate(-2.66 -1.65)"/><path class="cls-1" d="M101.28,56.75c-.14-.87-.65-.42-1.09-.26-3,1.12-4.56.26-5.09-2.92A11.43,11.43,0,0,1,95,51.72V39.07a32.61,32.61,0,0,0-.5-7.64c-1.24-5.1-6.62-8.68-11.37-7.41A36.35,36.35,0,0,0,70.23,30.5c-2.4,1.86-2,4.39.72,5.75a2.51,2.51,0,0,0,3.49-.72,2.47,2.47,0,0,0,.38-1,17.41,17.41,0,0,1,1.67-4.24,5.76,5.76,0,0,1,7.85-2.17,6,6,0,0,1,1,.73c2.34,1.94,2.86,4.64,3,7.45.14,2.28.11,2.28-1.93,3.27a105.51,105.51,0,0,1-11.56,4.43,10.45,10.45,0,0,0-4.71,2.87c-2.47,2.88-2.37,6.11-1.07,9.42,1.74,4.44,8,8.49,13.74,4.56,1.64-1.12,3.33-2.16,5-3.27.51-.34.78-.5,1,.29a7.1,7.1,0,0,0,1.42,2.58,4.5,4.5,0,0,0,5.91,1.12l5-3C102.38,58.05,101.39,57.39,101.28,56.75ZM87.69,55.06A14,14,0,0,1,83,57.27,6,6,0,0,1,76.11,54a5.81,5.81,0,0,1,1.8-7.51A15.23,15.23,0,0,1,80.48,45c2.59-1.16,5.17-2.35,7.91-3.6V53.75A1.43,1.43,0,0,1,87.69,55.06Z" transform="translate(-2.66 -1.65)"/><path class="cls-2" d="M108.15,14.92c0-1.24.09-2.47.12-3.71A2.19,2.19,0,0,0,107.16,9c-1.36-.74-4.35.24-5,1.63-.14.28-.22.54,0,.8a.73.73,0,0,0,.88.25,1.11,1.11,0,0,0,.83-1c.1-1,.72-1.25,1.54-1.2a1.2,1.2,0,0,1,1.13,1.26.53.53,0,0,1,0,.13c0,.74.32,1.67-.92,1.92a6.71,6.71,0,0,0-2.91,1.32c-.7.57-1.23,1.24-.82,2.24A1.93,1.93,0,0,0,104,17.58a3.46,3.46,0,0,0,1.87-.55.7.7,0,0,1,1,0h0c1,.86,2.12.55,3.06-.8C108.23,16.66,108.11,16.56,108.15,14.92Zm-1.79-.42c.14,1,0,1.71-.93,2-.56.16-1.17.33-1.57-.28a1.46,1.46,0,0,1,.07-1.82,2.68,2.68,0,0,1,2-1.05C107,13.35,106.08,14.28,106.36,14.5Z" transform="translate(-2.66 -1.65)"/><path class="cls-2" d="M120.08,12.1h3.72c1.24,0,1.59-.33.9-1.55a3.53,3.53,0,0,0-.77-1c-2.24-2-5.77-.62-6.5,2.52a4.45,4.45,0,0,0,2.67,5.25,3.94,3.94,0,0,0,4.9-2c-.15-.06-.2-.1-.22-.08a2,2,0,0,0-.39.24,3.16,3.16,0,0,1-3.68.57c-1.29-.66-1.4-1.91-1.41-3.19C119.3,12.3,119.47,12.08,120.08,12.1Zm1.68-2.75c.88.11,1.68,1,1.53,1.65-.08.37-.37.43-.65.47-.49.07-1,.07-1.28.09a1.13,1.13,0,0,1-.32,0c-.46-.26-1.37.6-1.44-.44S120.79,9.24,121.76,9.35Z" transform="translate(-2.66 -1.65)"/></svg>